<mxfile host="app.diagrams.net" modified="2024-04-16T09:04:52.001Z" agent="Mozilla/5.0 (Windows NT 10.0; Win64; x64) AppleWebKit/537.36 (KHTML, like Gecko) Chrome/123.0.0.0 Safari/537.36 Edg/123.0.0.0" version="24.2.3" etag="uBzOij4is22QP6LQwiQy" type="github">
  <diagram name="Страница — 1" id="CHMhVLo8z1zTMHO5Jvv0">
    <mxGraphModel>
      <root>
        <mxCell id="0" />
        <mxCell id="1" parent="0" />
      </root>
    </mxGraphModel>
  </diagram>
</mxfile>
